<?xml version="1.0" encoding="UTF-8" standalone="no"?>
<!DOCTYPE svg PUBLIC "-//W3C//DTD SVG 1.1//EN" "http://www.w3.org/Graphics/SVG/1.1/DTD/svg11.dtd">
<svg width="100%" height="100%" viewBox="0 0 254 200" version="1.1" xmlns="http://www.w3.org/2000/svg" xmlns:xlink="http://www.w3.org/1999/xlink" xml:space="preserve" xmlns:serif="http://www.serif.com/" style="fill-rule:evenodd;clip-rule:evenodd;stroke-linejoin:round;stroke-miterlimit:2;">
    <g transform="matrix(0.195312,0,0,0.195312,0,0)">
        <path d="M1084.21,992.375C998.994,28.004 931.858,0 931.858,0C868.712,15.392 800.093,181.468 800.093,181.468C750.762,158.194 662.022,163.294 662.022,163.294C662.022,163.294 573.281,158.194 523.949,181.468C523.949,181.468 455.331,15.392 392.183,0C392.183,0 327.459,27.077 244.375,941.838L230.002,941.56L202.09,941.56C199.772,941.468 195.414,941.004 191.891,940.355C188.181,939.613 184.38,938.964 180.763,937.851C150.719,930.154 126.332,910.589 114.741,882.306C112.794,879.061 112.052,875.074 110.661,871.458C109.362,867.748 107.786,864.225 107.137,860.423L104.262,849.203C103.706,845.494 103.521,841.785 103.057,838.075C101.851,823.147 103.242,807.846 108.713,794.493C114.092,781.141 122.994,768.808 135.327,758.701C141.446,753.693 148.031,748.871 155.17,744.791C158.786,742.844 162.403,740.804 166.205,739.135C169.821,737.373 174.18,735.703 176.869,734.684L179.372,733.664C188.089,730.233 193.467,720.96 191.612,711.409C189.799,702.171 181.626,695.447 172.212,695.447C170.911,695.447 169.613,695.576 168.337,695.831C161.847,697.129 157.025,698.241 151.647,699.911C146.361,701.487 141.354,703.434 136.346,705.475C126.332,709.648 116.503,714.747 107.23,721.053C88.684,733.478 71.9,750.911 61.144,772.331C40.094,815.636 42.599,865.801 61.886,906.601C71.345,927.465 86.459,946.567 104.448,961.59C122.437,976.796 143.672,987.275 165.648,993.302C171.12,994.971 176.776,995.991 182.433,997.011C188.367,997.939 194.487,999.793 201.627,1000.26C211.086,1000.91 239.182,1003.97 239.182,1003.97C257.078,1005.17 273.213,1009.07 290.739,1010.64C343.594,1018.15 449.767,1024.92 662.114,1023.9C1120.65,1026.13 1084.21,992.375 1084.21,992.375L1084.21,992.375ZM473.412,469.946C447.263,469.946 426.028,448.711 426.028,422.561C426.028,396.412 447.262,375.177 473.412,375.177C499.561,375.177 520.796,396.411 520.796,422.561C520.796,448.711 499.561,469.946 473.412,469.946ZM727.95,580.94L681.772,580.94C680.543,580.955 679.363,580.45 678.527,579.55L662.021,563.044L645.515,579.55C644.654,580.415 643.49,580.913 642.27,580.94L596.276,580.94L596.276,571.668L640.323,571.668L657.848,554.142C658.682,552.566 660.352,551.917 662.113,551.917C663.597,551.917 665.08,552.473 666.008,553.772L683.905,571.668L727.95,571.668L727.95,580.94ZM850.629,469.946C824.48,469.946 803.246,448.711 803.246,422.561C803.246,396.412 824.48,375.177 850.629,375.177C876.778,375.177 898.013,396.411 898.013,422.561C898.013,448.711 876.779,469.946 850.629,469.946Z" style="fill:white;fill-rule:nonzero;"/>
    </g>
</svg>
